# xmcd
#
# Track frame offsets: 
#        150
#        10483
#        23558
#        36617
#        48524
#        61836
#        74332
#        84363
#        101923
#        114736
#        126418
#        142926
#        156791
#        170363
#        185524
#        196743
#        206144
#        216422
#        229081
#        239367
#
# Disc length: 3395 seconds
#
# Revision: 0
# Processed by: cddbd v1.5.2PL0 Copyright (c) Steve Scherf et al.
# Submitted via: ExactAudioCopy v1.0b1
#
DISCID=240d4114
DTITLE=Various Artist - Heart of Texas Records 30th Anniversary Collection [D
DTITLE=isc 1]
DYEAR=2019
DGENRE=Country
TTITLE0=Johnny Bush - A Moment Isn't Very Long
TTITLE1=Norma Jean - Let's Go All The Way
TTITLE2=Joe Paul Nichols and Curtis Potter - I Miss My Mind The Most
TTITLE3=Kim Murray - She Did This To Me
TTITLE4=George Hamilton IV - To You And Yours
TTITLE5=Mona McCall - Till These Dreams Come True
TTITLE6=Tony Booth - Cold Brown Bottle
TTITLE7=Dallas Wayne - Eleven Roses
TTITLE8=Amber Digby - Another Man Loved Me Last Night
TTITLE9=Rance Norton - This Time I Won't Cheat On Her Again
TTITLE10=Darrell McCall - Down The Road Of Daddy's Dreams
TTITLE11=Landon Dodd - One Bar At A Time
TTITLE12=Chuck Hancock - Through The Eyes Of A Fool
TTITLE13=Guyanne McCall - Yesterdays News
TTITLE14=Frankie Miller - It's Not Easy
TTITLE15=Georgette Jones - The Race Is On
TTITLE16=Hank Thompson and Marty Stuart - Green Light
TTITLE17=Dottsy - It Should Have Been Easy
TTITLE18=Justin Trevino and Myra Rolen - Cheatin' Overtime
TTITLE19=Mary Lou Turner - Love It Away
EXTD=
EXTT0=
EXTT1=
EXTT2=
EXTT3=
EXTT4=
EXTT5=
EXTT6=
EXTT7=
EXTT8=
EXTT9=
EXTT10=
EXTT11=
EXTT12=
EXTT13=
EXTT14=
EXTT15=
EXTT16=
EXTT17=
EXTT18=
EXTT19=
PLAYORDER=
